<?xml version="1.0" encoding="UTF-8"?>
<svg xmlns="http://www.w3.org/2000/svg" xmlns:xlink="http://www.w3.org/1999/xlink" viewBox="0 0 200 200">
  <defs>
    <style>
      .cls-1 {
        fill: url(#Degradado_sin_nombre_37-2);
      }

      .cls-1, .cls-2, .cls-3, .cls-4, .cls-5, .cls-6, .cls-7, .cls-8 {
        stroke-width: 0px;
      }

      .cls-1, .cls-2, .cls-7, .cls-8 {
        mix-blend-mode: hard-light;
        opacity: .7;
      }

      .cls-9 {
        isolation: isolate;
      }

      .cls-2 {
        fill: url(#Degradado_sin_nombre_37);
      }

      .cls-3 {
        fill: url(#Degradado_sin_nombre_335);
      }

      .cls-4 {
        fill: #fff;
      }

      .cls-5 {
        fill: url(#Adsız_degrade_5);
      }

      .cls-6 {
        fill: url(#Degradado_sin_nombre_38);
      }

      .cls-7 {
        fill: url(#Degradado_sin_nombre_37-3);
      }

      .cls-8 {
        fill: url(#Degradado_sin_nombre_37-4);
      }
    </style>
    <linearGradient id="Degradado_sin_nombre_335" data-name="Degradado sin nombre 335" x1="0" y1="0" x2="200" y2="200" gradientUnits="userSpaceOnUse">
      <stop offset="0" stop-color="#537352"/>
      <stop offset="1" stop-color="#0d221b"/>
    </linearGradient>
    <linearGradient id="Degradado_sin_nombre_38" data-name="Degradado sin nombre 38" x1="0" y1="0" x2="200" y2="200" gradientUnits="userSpaceOnUse">
      <stop offset="0" stop-color="#294c3d"/>
      <stop offset="1" stop-color="#132e22"/>
    </linearGradient>
    <linearGradient id="Adsız_degrade_5" data-name="Adsız degrade 5" x1="71.93" y1="158.45" x2="244.55" y2="158.45" gradientTransform="translate(258.61 -58.24) rotate(90)" gradientUnits="userSpaceOnUse">
      <stop offset="0" stop-color="#67522c"/>
      <stop offset=".09" stop-color="#76603a"/>
      <stop offset=".37" stop-color="#a28862"/>
      <stop offset=".51" stop-color="#b39872"/>
      <stop offset="1" stop-color="#67522c"/>
    </linearGradient>
    <radialGradient id="Degradado_sin_nombre_37" data-name="Degradado sin nombre 37" cx="161.35" cy="1335" fx="161.35" fy="1335" r="35.01" gradientTransform="translate(380.4 -230.77) rotate(90) scale(2.05 .15)" gradientUnits="userSpaceOnUse">
      <stop offset="0" stop-color="#e5d6b5"/>
      <stop offset=".08" stop-color="#deceac" stop-opacity=".87"/>
      <stop offset=".27" stop-color="#d1bd9a" stop-opacity=".61"/>
      <stop offset=".45" stop-color="#c6b08c" stop-opacity=".39"/>
      <stop offset=".61" stop-color="#bea580" stop-opacity=".22"/>
      <stop offset=".77" stop-color="#b89e78" stop-opacity=".1"/>
      <stop offset=".9" stop-color="#b49973" stop-opacity=".03"/>
      <stop offset="1" stop-color="#b39872" stop-opacity="0"/>
    </radialGradient>
    <radialGradient id="Degradado_sin_nombre_37-2" data-name="Degradado sin nombre 37" cx="514.5" cy="1361.22" fx="514.5" fy="1361.22" r="27.73" gradientTransform="translate(495.17 -519.24) rotate(90) scale(1.2 .23)" xlink:href="#Degradado_sin_nombre_37"/>
    <radialGradient id="Degradado_sin_nombre_37-3" data-name="Degradado sin nombre 37" cx="32.48" cy="2357.36" fx="32.48" fy="2357.36" r="35.01" gradientTransform="translate(359.79 30.67) rotate(90) scale(2.05 .15)" xlink:href="#Degradado_sin_nombre_37"/>
    <radialGradient id="Degradado_sin_nombre_37-4" data-name="Degradado sin nombre 37" cx="295.06" cy="2017.81" fx="295.06" fy="2017.81" r="27.73" gradientTransform="translate(474.57 -257.8) rotate(90) scale(1.2 .23)" xlink:href="#Degradado_sin_nombre_37"/>
  </defs>
  <g class="cls-9">
    <g id="katman_2" data-name="katman 2">
      <g id="katman_1" data-name="katman 1">
        <g>
          <rect class="cls-3" width="200" height="200"/>
          <rect class="cls-6" width="200" height="200"/>
          <path class="cls-4" d="M148.55,143.65v14.44H51.45v-11.29L124.48,56.35H52.61v-14.44h93.78v11.29l-72.7,90.46h74.85Z"/>
          <path class="cls-5" d="M177.46,13.69H22.86c-4.98,0-9.01,4.03-9.01,9.01v154.6c0,4.98,4.03,9.01,9.01,9.01h154.6c4.98,0,9.01-4.03,9.01-9.01V22.7c0-4.98-4.03-9.01-9.01-9.01ZM16.11,175.04V24.96c0-4.98,4.03-9.01,9.01-9.01h150.08c4.98,0,9.01,4.03,9.01,9.01v150.08c0,4.98-4.03,9.01-9.01,9.01H25.12c-4.98,0-9.01-4.03-9.01-9.01Z"/>
          <g>
            <path class="cls-2" d="M185.09,171.55c-2.83,0-5.12-32.11-5.12-71.73s2.29-71.73,5.12-71.73,5.12,32.11,5.12,71.73-2.29,71.73-5.12,71.73Z"/>
            <path class="cls-1" d="M185.09,133.19c-3.49,0-6.32-14.94-6.32-33.36s2.83-33.36,6.32-33.36,6.32,14.94,6.32,33.36c0,18.43-2.83,33.36-6.32,33.36Z"/>
          </g>
          <g>
            <path class="cls-7" d="M14.91,168.96c-2.83,0-5.12-32.11-5.12-71.73,0-39.61,2.29-71.73,5.12-71.73,2.83,0,5.12,32.11,5.12,71.73,0,39.61-2.29,71.73-5.12,71.73Z"/>
            <path class="cls-8" d="M14.91,130.59c-3.49,0-6.32-14.94-6.32-33.36s2.83-33.36,6.32-33.36,6.32,14.94,6.32,33.36c0,18.43-2.83,33.36-6.32,33.36Z"/>
          </g>
        </g>
      </g>
    </g>
  </g>
</svg>